<svg width="216" height="200" viewBox="0 0 216 200" fill="none" xmlns="http://www.w3.org/2000/svg">
<rect x="214.414" y="135.711" width="44.8426" height="72.2727" rx="8" transform="rotate(105 214.414 135.711)" fill="#F7339A"/>
<rect x="12.8735" y="179.026" width="44.8426" height="72.2727" rx="8" transform="rotate(-105 12.8735 179.026)" fill="#FB2C36"/>
<rect x="203.515" y="62.62" width="48.1246" height="77.5622" rx="8" transform="rotate(75 203.515 62.62)" fill="#8E51FF"/>
<rect y="109.105" width="48.1246" height="77.5622" rx="8" transform="rotate(-75 0 109.105)" fill="#FF6900"/>
<rect x="162.11" y="9.85687" width="48.1246" height="77.5622" rx="8" transform="rotate(45 162.11 9.85687)" fill="#00A6F5"/>
<rect x="20.8733" y="43.8862" width="48.1246" height="77.5622" rx="8" transform="rotate(-45 20.8733 43.8862)" fill="#F0B200"/>
<rect x="79.4346" y="6.10352e-05" width="56.242" height="86.3923" rx="8" fill="#00C951"/>
<path d="M108.535 199.628C138.155 199.628 162.167 175.616 162.167 145.995C162.167 116.375 138.155 92.3627 108.535 92.3627C78.914 92.3627 54.9017 116.375 54.9017 145.995C54.9017 175.616 78.914 199.628 108.535 199.628Z" fill="#FCC742"/>
<path d="M108.535 148.025C133.992 148.025 154.63 127.387 154.63 101.93C154.63 76.4719 133.992 55.8344 108.535 55.8344C83.0769 55.8344 62.4393 76.4719 62.4393 101.93C62.4393 127.387 83.0769 148.025 108.535 148.025Z" fill="#FCC742"/>
<path d="M146.403 132.198C157.771 132.198 166.987 122.982 166.987 111.614C166.987 100.246 157.771 91.0309 146.403 91.0309C135.035 91.0309 125.82 100.246 125.82 111.614C125.82 122.982 135.035 132.198 146.403 132.198Z" fill="#FCC742"/>
<path d="M62.1494 133.529C73.5173 133.529 82.7329 124.314 82.7329 112.946C82.7329 101.578 73.5173 92.3627 62.1494 92.3627C50.7815 92.3627 41.566 101.578 41.566 112.946C41.566 124.314 50.7815 133.529 62.1494 133.529Z" fill="#FCC742"/>
<path d="M121.905 134.384C121.864 141.959 116.052 148.389 108.356 149.045C100.696 149.697 93.901 144.393 92.5362 136.979C81.2118 140.254 72.1762 145.941 67.3836 152.663C63.8387 157.638 67.7334 164.487 73.8225 163.969L145.391 157.871C151.497 157.351 154.152 149.927 149.799 145.619C143.857 139.73 133.813 135.633 121.905 134.384Z" fill="#770BE3"/>
<path d="M99.4664 94.0845H76.4362C74.8475 94.0845 73.5546 92.7974 73.5546 91.2029C73.5546 89.6142 74.8417 88.3212 76.4362 88.3212H99.4664C101.055 88.3212 102.348 89.6084 102.348 91.2029C102.342 92.7916 101.055 94.0845 99.4664 94.0845Z" fill="#770BE3"/>
<path d="M138.853 95.0875L117.325 86.9006C115.84 86.3323 115.092 84.6741 115.655 83.1839C116.223 81.6996 117.881 80.9516 119.371 81.5141L140.9 89.701C142.384 90.2693 143.132 91.9275 142.57 93.4177C142.002 94.9078 140.343 95.6558 138.853 95.0875Z" fill="#770BE3"/>
<path d="M74.8383 112.732C75.3732 105.618 81.5736 100.284 88.6879 100.819C95.4842 101.33 100.655 107.011 100.638 113.72C100.936 113.638 101.237 113.558 101.543 113.484C105.132 112.616 109.325 112.336 113.709 113.544C114.318 113.711 114.927 113.908 115.536 114.133C116.849 107.538 122.907 102.809 129.783 103.326C137.216 103.885 142.789 110.364 142.231 117.798C141.672 125.231 135.193 130.805 127.759 130.246C121.477 129.774 116.523 125.073 115.477 119.141C114.463 118.657 113.461 118.287 112.478 118.016C109.022 117.064 105.649 117.263 102.635 117.992C101.537 118.258 100.494 118.593 99.5209 118.963C97.3628 123.802 92.3391 127.003 86.7513 126.583C79.637 126.048 74.3035 119.847 74.8383 112.732Z" fill="#770BE3"/>
</svg>
